<svg xmlns="http://www.w3.org/2000/svg" xmlns:xlink="http://www.w3.org/1999/xlink" width="165.03" height="165.03" viewBox="0 0 165.03 165.03">
  <defs>
    <clipPath id="clip-path">
      <path id="Mask" d="M24.167,140.863a82.517,82.517,0,0,1,116.7-116.7,82.517,82.517,0,0,1-116.7,116.7ZM30.628,30.628A73.379,73.379,0,1,0,134.4,134.4,73.379,73.379,0,1,0,30.628,30.628Zm7.146,87.919-2.728-2.2.527-3.46A48.7,48.7,0,0,1,58.532,78.579a30.206,30.206,0,1,1,50.753.213,48.7,48.7,0,0,1,22.609,34.089l.527,3.464-2.728,2.2a72.8,72.8,0,0,1-91.918,0Zm10.538-7.292A60.735,60.735,0,0,0,81.9,122.678l1.828.03a60.529,60.529,0,0,0,35.415-11.454A36.694,36.694,0,0,0,100.321,87.7a30.22,30.22,0,0,1-32.905-.141A36.476,36.476,0,0,0,48.312,111.254Z" fill="#d0d5db"/>
    </clipPath>
  </defs>
  <g id="Icons_User-Login" data-name="Icons/User-Login" transform="translate(4.567 4.567)">
    <g id="Colors_White" data-name="Colors/White" transform="translate(-4.567 -4.567)">
      <path id="Mask-2" data-name="Mask" d="M24.167,140.863a82.517,82.517,0,0,1,116.7-116.7,82.517,82.517,0,0,1-116.7,116.7ZM30.628,30.628A73.379,73.379,0,1,0,134.4,134.4,73.379,73.379,0,1,0,30.628,30.628Zm7.146,87.919-2.728-2.2.527-3.46A48.7,48.7,0,0,1,58.532,78.579a30.206,30.206,0,1,1,50.753.213,48.7,48.7,0,0,1,22.609,34.089l.527,3.464-2.728,2.2a72.8,72.8,0,0,1-91.918,0Zm10.538-7.292A60.735,60.735,0,0,0,81.9,122.678l1.828.03a60.529,60.529,0,0,0,35.415-11.454A36.694,36.694,0,0,0,100.321,87.7a30.22,30.22,0,0,1-32.905-.141A36.476,36.476,0,0,0,48.312,111.254Z" transform="translate(0)" fill="#d0d5db"/>
      <g id="Colors_White-2" data-name="Colors/White" transform="translate(0)" clip-path="url(#clip-path)">
        <g id="Colors_White-3" data-name="Colors/White" transform="translate(-624.955 -626.325)">
          <rect id="Rectangle" width="1522.424" height="1522.424" fill="#d0d5db"/>
        </g>
      </g>
    </g>
  </g>
</svg>
